<svg xmlns="http://www.w3.org/2000/svg" width="163" height="263"><path fill-rule="evenodd" clip-rule="evenodd" fill="#FFF" d="M0-.013h162.936v263.014H0V-.013zm81.468 243.801c34.662 0 62.762-28.1 62.762-62.763 0-7.851-1.719-15.547-4.327-22.945-15.238-43.219-58.436-116.917-58.436-116.917s-43.205 73.71-58.438 116.928c-2.606 7.395-4.324 15.089-4.324 22.935.001 34.662 28.1 62.762 62.763 62.762z"/><path fill-rule="evenodd" clip-rule="evenodd" fill="#ccc" d="M81.468 263.001C36.475 263.001 0 226.526 0 181.533c0-10.185 2.229-20.172 5.612-29.771C25.386 95.665 81.467-.013 81.467-.013s56.072 95.663 75.85 151.762c3.386 9.604 5.618 19.594 5.618 29.784.001 44.993-36.474 81.468-81.467 81.468zm0-15.276c36.688 0 66.43-29.742 66.43-66.43 0-8.311-1.819-16.456-4.58-24.287-16.128-45.745-61.85-123.75-61.85-123.75s-45.73 78.017-61.854 123.762c-2.759 7.826-4.576 15.971-4.576 24.275 0 36.687 29.741 66.43 66.43 66.43z"/></svg>