<svg xmlns="http://www.w3.org/2000/svg" height="1190" viewBox="5000 -1010.5 360.6 992.4"><path d="M4964.4-1110.5h359.7V81.8h-359.7v-1192.3zm133.1 120.2c0 3.2.8 4.4 1.6 6.7 1.8 5.4 0 3 0 7.3 0 4.6 4.2 2.6.9 9-6.2 11.8-3.2 14.2 1.7 22.1 1.4 2.2 0 1.7 3.2 2.6l-5.1 76.1c-1 7.6-2 17.2-2.9 25-3.7 33-7.1 66-10.7 98.5L5072-621c-2.7 24.3-6.7 49-9.1 73.8-3.1 32.3-7.8 65.9-10.5 98.6-2.1 24.6-5.3 51.5-6.7 75.4-.4 7.8-1.5 18-2.3 25.6l-.9 12.2c-1.6 32.9-4.1 56.7-4.1 91.9 0 18.1-.9 35.2-.8 54.2 0 5.2-.6 7.6-.8 11.6v122.1c.2 4.1.9 6.3.8 11.6-.1 6.3 1.3 18.9 6.6 18.9h200.2c6.2 0 7.2-20.5 7.4-33.8v-118.8c-.2-4.2-.9-6.4-.8-11.5.2-36.3-2-71.9-2.4-106.7l-12.4-151.7c-2.1-30.7-7.6-68.1-10.6-99.4l-11.9-97.2c-2.3-16.5-3.5-31.8-5.6-48.5-4.1-31.9-6.6-67.1-10.9-98.2-3.3-24-4.7-50.2-8.1-74l-4.6-70.9c-.2-3.7-.7-3-.8-6.6 3.7-1 1.5-1 5.1-5.5 6-7.6 2.4-13.6-.6-19.6-2.7-5.6 1.2-4.2 1.2-8.5s-1.5-1.2 0-6.5c2.2-7.6 2.9-9.7-1.4-15.1-1.7-2.2-2.3-5.5-5.2-5.5h-77.1c-2.3-.3-8.2 7.4-8.2 12.8z" fill="#fff"/></svg>