<?xml version="1.0" encoding="utf-8"?>
<!-- Generator: Adobe Illustrator 16.0.3, SVG Export Plug-In . SVG Version: 6.00 Build 0)  -->
<!DOCTYPE svg PUBLIC "-//W3C//DTD SVG 1.1//EN" "http://www.w3.org/Graphics/SVG/1.1/DTD/svg11.dtd" [
	<!ENTITY ns_extend "http://ns.adobe.com/Extensibility/1.0/">
	<!ENTITY ns_ai "http://ns.adobe.com/AdobeIllustrator/10.0/">
	<!ENTITY ns_graphs "http://ns.adobe.com/Graphs/1.0/">
	<!ENTITY ns_vars "http://ns.adobe.com/Variables/1.0/">
	<!ENTITY ns_imrep "http://ns.adobe.com/ImageReplacement/1.0/">
	<!ENTITY ns_sfw "http://ns.adobe.com/SaveForWeb/1.0/">
	<!ENTITY ns_custom "http://ns.adobe.com/GenericCustomNamespace/1.0/">
	<!ENTITY ns_adobe_xpath "http://ns.adobe.com/XPath/1.0/">
]>
<svg version="1.1" id="_x31_" xmlns:x="&ns_extend;" xmlns:i="&ns_ai;" xmlns:graph="&ns_graphs;"
	 xmlns="http://www.w3.org/2000/svg" xmlns:xlink="http://www.w3.org/1999/xlink" x="0px" y="0px" width="163px" height="263px"
	 viewBox="0 0 163 263" enable-background="new 0 0 163 263" xml:space="preserve">
<path fill-rule="evenodd" clip-rule="evenodd" fill="#FFFFFF" d="M0-0.013h162.936v263.014H0V-0.013L0-0.013z M81.468,243.788
	c34.662,0,62.762-28.1,62.762-62.763c0-7.851-1.719-15.547-4.327-22.945C124.665,114.861,81.467,41.163,81.467,41.163
	s-43.205,73.71-58.438,116.928c-2.606,7.395-4.324,15.089-4.324,22.935C18.706,215.688,46.805,243.788,81.468,243.788z"/>
<path fill-rule="evenodd" clip-rule="evenodd" fill="#ccc" d="M81.468,263.001C36.475,263.001,0,226.526,0,181.533
	c0-10.185,2.229-20.172,5.612-29.771C25.386,95.665,81.467-0.013,81.467-0.013s56.072,95.663,75.85,151.762
	c3.386,9.604,5.618,19.594,5.618,29.784C162.936,226.526,126.461,263.001,81.468,263.001L81.468,263.001z M81.468,247.725
	c36.688,0,66.43-29.742,66.43-66.43c0-8.311-1.819-16.456-4.58-24.287c-16.128-45.745-61.85-123.75-61.85-123.75
	S35.738,111.275,19.614,157.02c-2.759,7.826-4.576,15.971-4.576,24.275C15.038,217.982,44.779,247.725,81.468,247.725z"/>
</svg>
