<?xml version="1.0" encoding="UTF-8"?>
<!DOCTYPE svg PUBLIC "-//W3C//DTD SVG 1.1//EN" "http://www.w3.org/Graphics/SVG/1.1/DTD/svg11.dtd">
<!-- Creator: CorelDRAW X8 -->
<svg xmlns="http://www.w3.org/2000/svg" xml:space="preserve" height="1185" version="1.1" style="shape-rendering:geometricPrecision; text-rendering:geometricPrecision; image-rendering:optimizeQuality; fill-rule:evenodd; clip-rule:evenodd"
viewBox="450000 0 1039268 584588"
 xmlns:xlink="http://www.w3.org/1999/xlink">
 <defs>
  <style type="text/css">
   <![CDATA[
    .fil0 {fill:black}
   ]]>
  </style>
 </defs>
 <g id="Слой_x0020_1">
  <metadata id="CorelCorpID_0Corel-Layer"/>
  <path class="fil0" fill="black" d="M0 0l1039268 0 0 584588 -1039268 0 0 -584588zm496702 58957c0,1571 416,2171 781,3270 875,2633 24,1477 24,3569 0,2258 2064,1299 434,4424 -3022,5795 -1579,6977 819,10818 671,1077 -15,832 1564,1253l-2524 37304c-476,3728 -1005,8444 -1427,12252 -1801,16196 -3461,32352 -5230,48276l-6912 59872c-1324,11917 -3301,24006 -4462,36170 -1513,15847 -3815,32296 -5158,48348 -1011,12081 -2615,25253 -3265,36966 -214,3840 -737,8828 -1136,12543l-461 5975c-778,16114 -2012,27799 -2012,45058 0,8872 -448,17266 -400,26555 13,2549 -315,3704 -405,5678l0 20871 0 38977c92,1988 428,3110 400,5681 -34,3092 631,9251 3221,9251l98162 0c3031,0 3549,-10072 3621,-16580l0 -4742 0 -53473c-75,-2060 -422,-3133 -408,-5661 102,-17786 -976,-35250 -1185,-52321l-6065 -74396c-1016,-15061 -3715,-33395 -5179,-48730l-5843 -47664c-1122,-8104 -1722,-15613 -2760,-23792 -1988,-15647 -3252,-32917 -5342,-48164 -1611,-11756 -2311,-24611 -3968,-36263l-2237 -34775c-93,-1796 -365,-1466 -405,-3216 1830,-489 752,-477 2515,-2716 2936,-3732 1175,-6652 -279,-9622 -1338,-2733 581,-2078 581,-4157 0,-2130 -743,-581 18,-3167 1094,-3714 1405,-4742 -693,-7423 -852,-1088 -1135,-2686 -2544,-2686l-37816 0c-1110,0 -4024,3793 -4024,6437z"/>
 </g>
</svg>
