<?xml version="1.0" encoding="utf-8"?>
<!-- Generator: Adobe Illustrator 16.0.3, SVG Export Plug-In . SVG Version: 6.00 Build 0)  -->
<!DOCTYPE svg PUBLIC "-//W3C//DTD SVG 1.1//EN" "http://www.w3.org/Graphics/SVG/1.1/DTD/svg11.dtd" [
	<!ENTITY ns_extend "http://ns.adobe.com/Extensibility/1.0/">
	<!ENTITY ns_ai "http://ns.adobe.com/AdobeIllustrator/10.0/">
	<!ENTITY ns_graphs "http://ns.adobe.com/Graphs/1.0/">
	<!ENTITY ns_vars "http://ns.adobe.com/Variables/1.0/">
	<!ENTITY ns_imrep "http://ns.adobe.com/ImageReplacement/1.0/">
	<!ENTITY ns_sfw "http://ns.adobe.com/SaveForWeb/1.0/">
	<!ENTITY ns_custom "http://ns.adobe.com/GenericCustomNamespace/1.0/">
	<!ENTITY ns_adobe_xpath "http://ns.adobe.com/XPath/1.0/">
]>
<svg version="1.1" id="_x31_" xmlns:x="&ns_extend;" xmlns:i="&ns_ai;" xmlns:graph="&ns_graphs;"
	 xmlns="http://www.w3.org/2000/svg" xmlns:xlink="http://www.w3.org/1999/xlink" x="0px" y="0px" width="435.872px"
	 height="263.03px" viewBox="0.064 -0.03 435.872 263.03" enable-background="new 0.064 -0.03 435.872 263.03" xml:space="preserve"
	>
<metadata>
	<sfw  xmlns="&ns_sfw;">
		<slices></slices>
		<sliceSourceBounds  height="263.03" width="435.872" bottomLeftOrigin="true" x="11.064" y="51"></sliceSourceBounds>
	</sfw>
</metadata>
<g>
	<path fill-rule="evenodd" clip-rule="evenodd" fill="#272727" d="M163.516-0.03c21.796,0,32.691,14.173,54.484,14.173
		c21.796,0,32.688-14.173,54.484-14.173c21.793,0,32.688,14.173,54.484,14.173c21.793,0,32.689-14.173,54.484-14.173
		c21.794,0,32.689,14.173,54.482,14.173V263H326.969l-0.002-0.003V263H163.516H0.065L0.064,14.144
		c21.794,0,32.69-14.173,54.484-14.173s32.689,14.173,54.485,14.173C130.827,14.144,141.723-0.03,163.516-0.03L163.516-0.03z"/>
</g>
</svg>
